<svg width="24" height="24" viewBox="0 0 24 24" fill="none" xmlns="http://www.w3.org/2000/svg">
<rect width="24" height="24" rx="4" fill="#FF2056"/>
<path d="M10.9577 13.2002C11.2798 13.6308 11.6907 13.9871 12.1626 14.2449C12.6345 14.5027 13.1563 14.656 13.6927 14.6944C14.229 14.7328 14.7674 14.6554 15.2712 14.4675C15.775 14.2796 16.2325 13.9855 16.6127 13.6052L18.8627 11.3552C19.5458 10.6479 19.9237 9.70065 19.9152 8.71741C19.9067 7.73418 19.5123 6.79363 18.817 6.09835C18.1217 5.40307 17.1812 5.00869 16.1979 5.00014C15.2147 4.9916 14.2674 5.36958 13.5602 6.05267L12.2702 7.33517" fill="#FF2056"/>
<path d="M13.9577 11.7002C13.6356 11.2696 13.2247 10.9133 12.7528 10.6555C12.2809 10.3976 11.759 10.2443 11.2227 10.2059C10.6863 10.1675 10.148 10.2449 9.64416 10.4328C9.14034 10.6208 8.68283 10.9149 8.30267 11.2952L6.05267 13.5452C5.36958 14.2524 4.9916 15.1997 5.00014 16.1829C5.00869 17.1662 5.40307 18.1067 6.09835 18.802C6.79363 19.4973 7.73418 19.8917 8.71741 19.9002C9.70065 19.9087 10.6479 19.5308 11.3552 18.8477L12.6377 17.5652" fill="#FF2056"/>
<path d="M10.9577 13.2002C11.2798 13.6308 11.6907 13.9871 12.1626 14.2449C12.6345 14.5027 13.1563 14.656 13.6927 14.6944C14.229 14.7328 14.7674 14.6554 15.2712 14.4675C15.775 14.2796 16.2325 13.9855 16.6127 13.6052L18.8627 11.3552C19.5458 10.6479 19.9237 9.70065 19.9152 8.71741C19.9067 7.73418 19.5123 6.79363 18.817 6.09835C18.1217 5.40307 17.1812 5.00869 16.1979 5.00014C15.2147 4.9916 14.2674 5.36958 13.5602 6.05267L12.2702 7.33517M13.9577 11.7002C13.6356 11.2696 13.2247 10.9133 12.7528 10.6555C12.2809 10.3976 11.759 10.2443 11.2227 10.2059C10.6863 10.1675 10.148 10.2449 9.64416 10.4328C9.14034 10.6208 8.68283 10.9149 8.30267 11.2952L6.05267 13.5452C5.36958 14.2524 4.9916 15.1997 5.00014 16.1829C5.00869 17.1662 5.40307 18.1067 6.09835 18.802C6.79363 19.4973 7.73418 19.8917 8.71741 19.9002C9.70065 19.9087 10.6479 19.5308 11.3552 18.8477L12.6377 17.5652" stroke="white" stroke-width="2" stroke-linecap="round" stroke-linejoin="round"/>
</svg>
