<svg width="116" height="28" viewBox="0 0 116 28" fill="none" xmlns="http://www.w3.org/2000/svg">
<rect width="28" height="28" rx="4" fill="#FF2056"/>
<path d="M12.7841 15.4002C13.1599 15.9025 13.6393 16.3182 14.1898 16.619C14.7404 16.9198 15.3492 17.0987 15.9749 17.1435C16.6007 17.1883 17.2287 17.098 17.8165 16.8787C18.4043 16.6595 18.9381 16.3164 19.3816 15.8727L22.0066 13.2477C22.8036 12.4225 23.2445 11.3174 23.2346 10.1703C23.2246 9.02319 22.7645 7.92588 21.9533 7.11472C21.1422 6.30356 20.0449 5.84345 18.8977 5.83348C17.7506 5.82351 16.6455 6.26449 15.8204 7.06143L14.3154 8.55768" fill="#FF2056"/>
<path d="M16.2841 13.6502C15.9083 13.1478 15.4289 12.7321 14.8784 12.4314C14.3278 12.1306 13.719 11.9517 13.0933 11.9069C12.4675 11.8621 11.8395 11.9524 11.2517 12.1716C10.6639 12.3909 10.1301 12.734 9.68661 13.1777L7.06161 15.8027C6.26467 16.6278 5.82369 17.7329 5.83366 18.8801C5.84363 20.0272 6.30374 21.1245 7.1149 21.9356C7.92606 22.7468 9.02337 23.2069 10.1705 23.2169C11.3176 23.2268 12.4227 22.7859 13.2479 21.9889L14.7441 20.4927" fill="#FF2056"/>
<path d="M12.7841 15.4002C13.1599 15.9025 13.6393 16.3182 14.1898 16.619C14.7404 16.9198 15.3492 17.0987 15.9749 17.1435C16.6007 17.1883 17.2287 17.098 17.8165 16.8787C18.4043 16.6595 18.9381 16.3164 19.3816 15.8727L22.0066 13.2477C22.8036 12.4225 23.2445 11.3174 23.2346 10.1703C23.2246 9.02319 22.7645 7.92588 21.9533 7.11472C21.1422 6.30356 20.0449 5.84345 18.8977 5.83348C17.7506 5.82351 16.6455 6.26449 15.8204 7.06143L14.3154 8.55768M16.2841 13.6502C15.9083 13.1478 15.4289 12.7321 14.8784 12.4314C14.3278 12.1306 13.719 11.9517 13.0933 11.9069C12.4675 11.8621 11.8395 11.9524 11.2517 12.1716C10.6639 12.3909 10.1301 12.734 9.68661 13.1777L7.06161 15.8027C6.26467 16.6278 5.82369 17.7329 5.83366 18.8801C5.84363 20.0272 6.30374 21.1245 7.1149 21.9356C7.92606 22.7468 9.02337 23.2069 10.1705 23.2169C11.3176 23.2268 12.4227 22.7859 13.2479 21.9889L14.7441 20.4927" stroke="white" stroke-width="2" stroke-linecap="round" stroke-linejoin="round"/>
<path d="M37.4347 21V6.45455H40.0696V18.7912H46.4759V21H37.4347ZM48.6491 21V10.0909H51.2202V21H48.6491ZM49.9418 8.54261C49.5346 8.54261 49.1842 8.40767 48.8906 8.13778C48.5971 7.86316 48.4503 7.53409 48.4503 7.15057C48.4503 6.76231 48.5971 6.43324 48.8906 6.16335C49.1842 5.88873 49.5346 5.75142 49.9418 5.75142C50.3537 5.75142 50.7041 5.88873 50.9929 6.16335C51.2865 6.43324 51.4332 6.76231 51.4332 7.15057C51.4332 7.53409 51.2865 7.86316 50.9929 8.13778C50.7041 8.40767 50.3537 8.54261 49.9418 8.54261ZM56.435 14.608V21H53.864V10.0909H56.3214V11.9446H56.4492C56.7002 11.3338 57.1003 10.8485 57.6495 10.4886C58.2035 10.1288 58.8877 9.94886 59.7021 9.94886C60.4549 9.94886 61.1107 10.1098 61.6694 10.4318C62.2328 10.7538 62.6684 11.2202 62.9762 11.831C63.2887 12.4418 63.4426 13.1828 63.4379 14.054V21H60.8668V14.4517C60.8668 13.7225 60.6774 13.152 60.2987 12.7401C59.9246 12.3281 59.4061 12.1222 58.7433 12.1222C58.2934 12.1222 57.8933 12.2216 57.543 12.4205C57.1973 12.6146 56.9251 12.8963 56.7262 13.2656C56.5321 13.6349 56.435 14.0824 56.435 14.608ZM68.3952 17.5767L68.3881 14.473H68.8001L72.7205 10.0909H75.7248L70.9023 15.4602H70.3697L68.3952 17.5767ZM66.0515 21V6.45455H68.6225V21H66.0515ZM72.8981 21L69.3469 16.0355L71.0799 14.2244L75.9734 21H72.8981Z" fill="#FAFAFA"/>
<path d="M77.5518 21V6.45455H80.1868V12.6122H86.9268V6.45455H89.5689V21H86.9268V14.821H80.1868V21H77.5518ZM99.2741 16.4119V10.0909H101.845V21H99.3523V19.0611H99.2386C98.9924 19.6719 98.5876 20.1714 98.0241 20.5597C97.4654 20.9479 96.7765 21.142 95.9574 21.142C95.2424 21.142 94.6103 20.9834 94.0611 20.6662C93.5166 20.3442 93.0904 19.8778 92.7827 19.267C92.4749 18.6515 92.321 17.9081 92.321 17.0369V10.0909H94.892V16.6392C94.892 17.3305 95.0814 17.8797 95.4602 18.2869C95.839 18.6941 96.3362 18.8977 96.9517 18.8977C97.3305 18.8977 97.6974 18.8054 98.0526 18.6207C98.4077 18.4361 98.6989 18.1615 98.9261 17.7969C99.1581 17.4276 99.2741 16.9659 99.2741 16.4119ZM104.603 21V6.45455H107.174V11.8949H107.28C107.413 11.6297 107.6 11.348 107.841 11.0497C108.083 10.7467 108.409 10.4886 108.821 10.2756C109.233 10.0578 109.759 9.94886 110.398 9.94886C111.241 9.94886 112.001 10.1643 112.678 10.5952C113.36 11.0213 113.9 11.6534 114.297 12.4915C114.7 13.3248 114.901 14.3475 114.901 15.5597C114.901 16.7576 114.704 17.7756 114.311 18.6136C113.918 19.4517 113.383 20.0909 112.706 20.5312C112.029 20.9716 111.262 21.1918 110.405 21.1918C109.78 21.1918 109.262 21.0876 108.85 20.8793C108.438 20.6709 108.106 20.42 107.855 20.1264C107.609 19.8281 107.417 19.5464 107.28 19.2812H107.131V21H104.603ZM107.124 15.5455C107.124 16.2509 107.223 16.8688 107.422 17.3991C107.626 17.9295 107.917 18.3437 108.296 18.642C108.679 18.9356 109.143 19.0824 109.688 19.0824C110.256 19.0824 110.732 18.9309 111.115 18.6278C111.499 18.3201 111.788 17.901 111.982 17.3707C112.181 16.8357 112.28 16.2273 112.28 15.5455C112.28 14.8684 112.183 14.267 111.989 13.7415C111.795 13.2159 111.506 12.804 111.123 12.5057C110.739 12.2074 110.261 12.0582 109.688 12.0582C109.139 12.0582 108.672 12.2027 108.289 12.4915C107.905 12.7803 107.614 13.1851 107.415 13.706C107.221 14.2268 107.124 14.84 107.124 15.5455Z" fill="#FF2056"/>
</svg>
